<?xml version="1.0" standalone="no"?>
<!DOCTYPE svg PUBLIC "-//W3C//DTD SVG 20010904//EN"
 "http://www.w3.org/TR/2001/REC-SVG-20010904/DTD/svg10.dtd">
<svg version="1.0" xmlns="http://www.w3.org/2000/svg"
 width="300.000000pt" height="87.000000pt" viewBox="0 0 300.000000 87.000000"
 preserveAspectRatio="xMidYMid meet">
<metadata>
Created by potrace 1.10, written by Peter Selinger 2001-2011
</metadata>
<g transform="translate(0.000000,87.000000) scale(0.100000,-0.100000)"
fill="#000000" stroke="none">
<path d="M0 695 l0 -175 95 0 95 0 0 95 0 95 220 0 220 0 0 80 0 80 -315 0
-315 0 0 -175z"/>
<path d="M790 435 l0 -435 95 0 95 0 0 180 0 180 138 0 c167 0 220 13 285 70
111 98 99 305 -21 385 -69 45 -137 55 -374 55 l-218 0 0 -435z m467 249 c57
-43 55 -112 -5 -147 -25 -15 -60 -20 -152 -24 l-120 -6 0 102 0 103 124 -4
c108 -3 128 -6 153 -24z"/>
<path d="M1600 695 l0 -175 95 0 95 0 0 95 0 95 220 0 220 0 0 80 0 80 -315 0
-315 0 0 -175z"/>
<path d="M2370 435 l0 -435 315 0 315 0 0 80 0 80 -220 0 -220 0 0 355 0 355
-95 0 -95 0 0 -435z"/>
<path d="M190 435 l0 -75 200 0 200 0 0 75 0 75 -200 0 -200 0 0 -75z"/>
<path d="M1790 435 l0 -75 200 0 200 0 0 75 0 75 -200 0 -200 0 0 -75z"/>
<path d="M0 175 l0 -175 315 0 315 0 0 80 0 80 -220 0 -220 0 0 95 0 95 -95 0
-95 0 0 -175z"/>
<path d="M1600 175 l0 -175 95 0 95 0 0 175 0 175 -95 0 -95 0 0 -175z"/>
</g>
</svg>
