<?xml version="1.0" standalone="no"?>
<!DOCTYPE svg PUBLIC "-//W3C//DTD SVG 20010904//EN"
 "http://www.w3.org/TR/2001/REC-SVG-20010904/DTD/svg10.dtd">
<svg version="1.0" xmlns="http://www.w3.org/2000/svg"
 width="300.000000pt" height="138.000000pt" viewBox="0 0 300.000000 138.000000"
 preserveAspectRatio="xMidYMid meet">
<metadata>
Created by potrace 1.10, written by Peter Selinger 2001-2011
</metadata>
<g transform="translate(0.000000,138.000000) scale(0.100000,-0.100000)"
fill="#000000" stroke="none">
<path d="M430 1326 c-185 -39 -314 -131 -381 -271 -48 -99 -34 -118 24 -31 44
67 105 117 188 155 83 38 125 49 116 30 -44 -104 -110 -272 -133 -341 -32 -97
-35 -99 -107 -74 -23 9 -40 10 -43 4 -8 -13 32 -54 67 -68 16 -7 29 -14 29
-16 0 -2 -14 -52 -30 -111 -29 -101 -90 -386 -90 -419 0 -7 4 -14 8 -14 13 0
134 259 187 400 l47 125 61 2 c138 6 286 72 388 174 167 166 140 365 -60 440
-70 26 -188 32 -271 15z m266 -56 c121 -47 166 -161 109 -277 -32 -63 -115
-143 -186 -177 -30 -15 -45 -20 -34 -11 11 8 42 32 68 53 56 44 111 120 128
180 34 118 -73 225 -240 239 -62 5 -69 4 -98 -21 -27 -22 -36 -25 -53 -16 -32
17 -24 28 33 39 96 20 205 16 273 -9z m-44 -62 c166 -71 104 -270 -117 -374
-58 -28 -195 -69 -195 -59 0 1 20 73 45 158 24 86 50 186 57 224 6 37 17 72
22 76 18 13 136 -2 188 -25z m-297 -230 c-49 -185 -50 -188 -37 -209 16 -25
15 -39 -1 -39 -24 0 -45 -34 -88 -140 -63 -160 -75 -163 -33 -10 14 52 24 109
22 126 -1 19 6 41 19 58 12 15 29 51 39 79 9 29 30 86 46 127 17 41 34 86 39
99 5 13 12 21 15 18 3 -3 -6 -52 -21 -109z"/>
<path d="M945 1147 c-51 -78 -146 -355 -172 -502 -20 -116 -17 -125 86 -236
l70 -77 -37 -15 c-33 -15 -22 -15 26 -2 12 4 19 0 19 -10 0 -10 -6 -14 -15
-10 -15 6 -41 -21 -42 -42 0 -9 7 -10 26 -2 37 13 42 4 14 -26 -19 -20 -20
-25 -7 -25 9 0 23 10 31 22 16 22 74 39 61 18 -4 -6 -10 -9 -13 -6 -3 4 -13
-6 -23 -20 -30 -46 -4 -81 54 -70 14 2 42 -2 64 -9 35 -13 39 -12 55 5 21 26
28 25 28 -2 0 -18 2 -20 10 -8 8 12 12 11 32 -7 54 -49 151 -76 355 -98 140
-16 217 -15 446 7 78 7 114 14 105 20 -9 7 -3 8 18 4 30 -5 102 7 139 23 11 5
38 14 60 21 80 24 392 185 405 210 9 16 5 16 -33 -5 -47 -27 -128 -57 -134
-51 -2 2 35 22 81 44 93 45 169 107 185 153 12 35 12 35 -34 8 -20 -12 -38
-19 -41 -16 -3 2 19 18 48 35 79 45 112 86 143 177 38 109 40 203 6 239 -29
31 -80 35 -129 9 -49 -27 -175 -146 -197 -187 -20 -36 -43 -51 -30 -18 3 9
-11 -3 -31 -27 -21 -24 -68 -67 -105 -95 -37 -28 -112 -86 -168 -128 -105 -81
-141 -104 -141 -91 0 4 20 21 45 38 24 16 42 31 40 33 -5 5 -110 -54 -153 -86
-18 -13 -36 -22 -39 -19 -3 3 11 16 31 29 56 36 42 40 -29 7 -36 -17 -70 -27
-77 -23 -7 4 -10 3 -5 -1 4 -5 -12 -19 -35 -32 -63 -36 -178 -83 -178 -74 0 5
30 22 68 37 37 16 83 37 102 47 l35 19 -50 -7 c-27 -4 -66 -8 -85 -10 -19 -2
-62 -11 -94 -20 -33 -10 -91 -17 -130 -18 -62 0 -66 -1 -31 -8 22 -4 51 -5 65
-2 14 3 22 3 19 -1 -3 -3 -43 -13 -88 -21 -83 -14 -172 -8 -195 15 -16 16 -1
22 85 27 59 4 78 9 64 15 -13 5 -7 6 20 3 29 -4 36 -3 25 4 -8 6 -52 11 -96
11 -50 0 -96 6 -117 15 -20 8 -49 16 -64 16 l-28 1 30 8 c17 4 23 8 15 9 -12
1 -13 3 -1 10 22 14 -2 20 -44 10 -67 -16 -199 -35 -218 -31 -16 3 -17 11 -13
65 5 50 3 57 -5 37 -6 -14 -11 -37 -11 -52 0 -15 -4 -30 -9 -34 -16 -10 -75
15 -103 45 l-27 28 43 12 c89 27 92 54 4 45 -61 -6 -65 -5 -81 20 -17 25 -16
31 24 183 111 422 115 443 104 454 -8 8 -16 4 -28 -14z m1991 -292 c21 -32 13
-100 -22 -194 -20 -52 -39 -80 -94 -136 -54 -54 -68 -75 -64 -91 7 -26 -29
-58 -122 -110 -36 -20 -72 -47 -80 -60 -22 -33 -76 -62 -152 -81 -70 -17 -116
-36 -143 -59 -23 -20 -222 -52 -405 -65 -138 -10 -180 -9 -290 5 -173 22 -260
46 -332 91 -55 33 -64 36 -92 27 -22 -8 -44 -8 -80 1 -47 11 -50 14 -45 37 4
20 -1 32 -25 53 -16 15 -30 34 -30 43 0 14 10 15 73 10 43 -5 100 -3 140 4 62
11 71 10 122 -11 42 -17 55 -28 55 -44 0 -11 5 -26 12 -33 6 -6 9 -15 5 -18
-6 -7 -104 20 -195 52 -29 11 -50 13 -69 7 -27 -9 -27 -10 -5 -15 12 -4 20 -2
16 3 -6 11 -2 11 20 3 9 -3 13 -11 9 -17 -3 -5 -1 -7 5 -3 6 3 50 -5 99 -19
48 -15 123 -31 166 -38 42 -6 77 -15 77 -19 0 -15 -211 21 -322 56 -43 13 -78
22 -78 20 0 -16 169 -69 245 -77 22 -3 65 -8 96 -12 51 -7 58 -5 68 13 7 13
25 22 58 27 26 4 74 15 107 26 l60 18 29 -29 29 -30 -54 0 c-59 0 -85 -14 -67
-37 13 -15 146 -17 189 -3 17 5 -12 9 -85 11 l-110 3 105 5 c85 5 98 8 72 15
-19 4 -30 12 -25 16 14 15 221 100 241 100 11 0 36 7 55 15 20 8 49 15 65 15
33 0 137 65 247 154 205 165 214 173 311 277 59 64 138 119 170 119 14 0 30
-10 40 -25z m-521 -710 c-47 -14 -143 -30 -134 -21 6 7 134 34 159 34 8 0 -3
-6 -25 -13z"/>
<path d="M1300 762 c0 -56 -35 -164 -64 -195 -46 -50 -122 -47 -140 6 -9 25
-3 77 20 182 7 27 6 29 -9 17 -25 -21 -75 -128 -82 -176 -14 -93 48 -152 150
-144 66 6 106 34 137 96 19 40 23 63 23 147 0 87 -2 100 -17 103 -15 3 -18 -4
-18 -36z"/>
<path d="M2158 781 c-84 -27 -138 -95 -138 -172 0 -86 69 -159 149 -159 69 0
180 75 152 103 -11 9 -14 9 -18 -1 -8 -21 -60 -42 -104 -42 -33 0 -47 6 -75
34 -19 19 -34 43 -34 54 0 18 5 19 64 15 66 -6 128 8 159 35 47 42 -5 129 -83
137 -25 2 -57 0 -72 -4z m93 -61 c10 -6 19 -15 19 -20 0 -14 -76 -31 -123 -28
l-42 3 40 28 c42 29 74 34 106 17z"/>
<path d="M1608 751 c-31 -17 -38 -18 -48 -6 -8 10 -31 15 -61 15 -39 0 -55 -5
-79 -27 -32 -29 -56 -88 -39 -99 5 -3 28 11 51 31 23 19 49 34 58 33 16 -4 16
-8 5 -143 -7 -89 3 -122 29 -95 8 8 27 58 42 110 14 52 33 101 42 108 23 18
76 15 95 -6 21 -23 21 -45 1 -134 -29 -126 19 -114 67 17 20 54 65 115 86 115
5 0 18 -6 29 -14 16 -13 19 -25 17 -91 -4 -136 27 -148 63 -25 34 116 21 165
-52 196 -35 15 -98 5 -122 -20 -14 -14 -18 -13 -41 15 -34 40 -91 48 -143 20z"/>
<path d="M384 345 c-27 -58 -51 -105 -54 -105 -3 0 -20 37 -38 83 -31 78 -32
80 -29 37 5 -52 47 -162 64 -167 7 -3 26 24 44 59 38 75 81 198 70 198 -5 0
-30 -47 -57 -105z"/>
<path d="M482 368 c-29 -35 -52 -66 -52 -70 0 -17 16 -6 40 27 37 51 42 43 14
-25 -21 -53 -33 -112 -19 -98 15 15 84 213 76 221 -4 4 -31 -20 -59 -55z"/>
<path d="M717 419 c-25 -14 -67 -106 -67 -144 0 -90 86 -101 129 -17 27 53 33
94 21 128 -17 44 -45 55 -83 33z m65 -41 c18 -53 -33 -158 -77 -158 -27 0 -40
44 -25 92 27 92 82 127 102 66z"/>
<path d="M1438 263 c18 -2 45 -2 60 0 15 2 0 4 -33 4 -33 0 -45 -2 -27 -4z"/>
</g>
</svg>
