<?xml version="1.0" standalone="no"?>
<!DOCTYPE svg PUBLIC "-//W3C//DTD SVG 20010904//EN"
 "http://www.w3.org/TR/2001/REC-SVG-20010904/DTD/svg10.dtd">
<svg version="1.0" xmlns="http://www.w3.org/2000/svg"
 width="300.000000pt" height="138.000000pt" viewBox="0 0 300.000000 138.000000"
 preserveAspectRatio="xMidYMid meet">
<metadata>
Created by potrace 1.10, written by Peter Selinger 2001-2011
</metadata>
<g transform="translate(0.000000,138.000000) scale(0.100000,-0.100000)"
fill="#000000" stroke="none">
<path d="M425 1326 c-130 -30 -244 -92 -311 -170 -36 -40 -94 -149 -94 -173 0
-25 19 -12 49 35 39 61 72 92 146 137 54 32 153 70 162 62 1 -2 -14 -44 -36
-93 -21 -49 -58 -143 -81 -209 -24 -66 -47 -124 -51 -129 -4 -5 -30 -3 -59 4
-28 7 -54 9 -57 6 -10 -9 35 -53 68 -66 16 -7 29 -14 29 -15 0 -2 -16 -61 -35
-131 -37 -135 -90 -402 -82 -411 14 -13 125 218 197 409 l39 103 80 11 c211
31 380 134 451 278 72 143 15 279 -140 337 -70 26 -196 33 -275 15z m232 -122
c90 -43 113 -108 69 -198 -34 -69 -100 -129 -191 -172 -66 -32 -179 -64 -189
-53 -2 2 15 72 39 154 24 83 49 181 56 218 10 53 17 71 33 78 33 13 126 0 183
-27z"/>
<path d="M927 1112 c-83 -152 -184 -514 -162 -582 4 -12 40 -60 81 -108 73
-85 74 -86 52 -99 l-23 -12 23 -1 c21 0 22 -1 8 -16 -21 -21 -20 -22 12 -18
24 4 23 3 -8 -11 l-35 -15 33 5 c36 5 39 0 15 -27 -13 -15 -14 -18 -2 -18 8 0
20 5 27 12 9 9 11 3 10 -26 -2 -45 12 -56 67 -55 22 0 55 -3 74 -7 27 -5 37
-3 47 11 12 16 14 17 20 2 3 -9 10 -14 16 -11 5 3 19 -3 31 -14 51 -46 144
-73 343 -98 91 -11 164 -14 249 -9 150 7 316 26 310 34 -2 4 20 7 48 8 74 1
189 43 362 130 173 86 215 111 215 124 0 5 -17 1 -37 -10 -67 -33 -90 -33 -29
1 76 42 151 110 165 149 9 27 8 30 -5 25 -9 -3 9 16 38 43 30 27 59 64 65 83
7 18 19 52 27 76 9 24 19 73 22 111 6 62 4 69 -21 99 -32 38 -80 43 -132 15
-47 -26 -161 -130 -191 -175 -14 -21 -30 -37 -35 -35 -6 2 -24 -11 -40 -30
-26 -30 -71 -66 -240 -195 -34 -26 -67 -46 -74 -43 -6 2 -37 -10 -67 -26 -31
-17 -61 -27 -67 -23 -12 7 -68 -16 -182 -73 -80 -41 -101 -39 -24 1 l52 28
-45 -7 c-197 -30 -283 -48 -273 -59 4 -4 -6 -5 -22 -1 -20 4 -25 3 -17 -3 19
-13 -57 -21 -143 -15 -112 8 -102 39 13 42 24 0 41 5 38 10 -4 5 0 12 6 14 7
3 -19 6 -58 6 -43 1 -83 7 -100 16 -16 8 -40 15 -54 16 -19 1 -21 2 -6 6 15 4
16 7 5 14 -11 7 -11 9 -1 9 7 0 10 5 7 10 -4 6 -10 8 -14 5 -7 -4 -198 -35
-217 -35 -3 0 -2 4 1 10 4 7 -3 7 -20 0 -20 -8 -27 -7 -31 5 -4 8 -4 21 -1 28
3 8 1 20 -4 28 -6 10 -9 4 -9 -19 0 -19 -6 -35 -14 -38 -19 -7 -78 21 -105 50
l-21 23 42 12 c84 25 94 56 14 46 -75 -10 -96 3 -96 59 0 24 29 148 64 277 75
275 84 319 63 319 -7 0 -26 -22 -40 -48z m1312 -708 c-7 -8 -26 -22 -43 -30
l-31 -15 35 30 c37 32 61 42 39 15z m-119 -39 c0 -2 -10 -10 -22 -16 -21 -11
-22 -11 -9 4 13 16 31 23 31 12z m-290 -110 c-14 -8 -29 -14 -35 -14 -5 0 1 6
15 14 14 8 30 14 35 14 6 0 -1 -6 -15 -14z m777 8 c-4 -3 -10 -3 -14 0 -3 4 0
7 7 7 7 0 10 -3 7 -7z m-1629 -38 c-3 -3 -9 2 -12 12 -6 14 -5 15 5 6 7 -7 10
-15 7 -18z m1429 -82 c-4 -3 -10 -3 -14 0 -3 4 0 7 7 7 7 0 10 -3 7 -7z m-40
-9 c-3 -3 -12 -4 -19 -1 -8 3 -5 6 6 6 11 1 17 -2 13 -5z"/>
<path d="M1307 793 c-4 -3 -7 -21 -7 -38 0 -41 -27 -132 -51 -171 -33 -54
-102 -71 -139 -34 -24 24 -25 59 -6 150 8 36 12 67 10 69 -14 15 -81 -116 -90
-175 -13 -91 50 -150 151 -142 102 9 155 79 163 220 6 101 -6 147 -31 121z"/>
<path d="M2145 777 c-52 -21 -86 -49 -106 -88 -54 -107 18 -239 130 -239 44 0
115 34 141 67 27 35 15 48 -20 21 -16 -12 -50 -23 -78 -26 -44 -4 -53 -1 -80
24 -17 16 -34 40 -37 54 l-6 25 90 0 c75 0 94 3 118 21 66 50 23 141 -72 149
-28 3 -63 -1 -80 -8z m108 -61 c9 -7 17 -16 17 -19 0 -10 -72 -27 -112 -27
-43 0 -48 9 -15 30 49 33 81 38 110 16z"/>
<path d="M1611 754 c-26 -14 -37 -15 -52 -6 -10 7 -39 12 -65 12 -39 0 -51 -5
-80 -34 -24 -24 -34 -43 -34 -65 0 -36 10 -39 36 -10 10 12 32 28 48 36 24 12
30 13 37 1 5 -7 7 -19 4 -25 -2 -7 -7 -52 -10 -100 -11 -156 26 -152 71 7 14
52 33 101 42 108 25 19 76 15 97 -8 18 -19 18 -26 6 -93 -18 -97 -19 -122 -2
-122 14 0 31 29 76 128 59 128 133 102 119 -41 -4 -42 -2 -62 9 -77 15 -19 16
-19 32 18 9 22 23 67 32 101 14 53 15 65 2 90 -32 66 -108 88 -179 51 -29 -15
-31 -15 -53 10 -29 34 -89 42 -136 19z"/>
<path d="M382 338 l-51 -103 -26 60 c-47 109 -44 103 -44 78 -1 -35 40 -150
60 -169 17 -15 19 -13 47 43 36 72 77 182 70 189 -3 3 -28 -41 -56 -98z"/>
<path d="M711 409 c-30 -28 -61 -96 -61 -134 0 -40 25 -75 54 -75 23 0 65 38
85 77 18 36 14 117 -7 136 -25 23 -44 21 -71 -4z m73 -31 c18 -51 -35 -158
-79 -158 -28 0 -39 44 -25 95 25 90 83 125 104 63z"/>
<path d="M481 367 c-48 -63 -53 -83 -11 -42 36 34 36 34 10 -40 -43 -125 -7
-75 41 57 35 95 21 104 -40 25z"/>
<path d="M1383 353 c4 -3 10 -3 14 0 3 4 0 7 -7 7 -7 0 -10 -3 -7 -7z"/>
<path d="M883 333 c4 -3 10 -3 14 0 3 4 0 7 -7 7 -7 0 -10 -3 -7 -7z"/>
<path d="M1428 263 c12 -2 32 -2 45 0 12 2 2 4 -23 4 -25 0 -35 -2 -22 -4z"/>
<path d="M586 221 c-4 -7 -5 -15 -2 -18 9 -9 19 4 14 18 -4 11 -6 11 -12 0z"/>
</g>
</svg>
