M48
; DRILL file {KiCad 9.0.0} date 2025-06-04T16:49:54+0200
; FORMAT={-:-/ absolute / metric / decimal}
; #@! TF.CreationDate,2025-06-04T16:49:54+02:00
; #@! TF.GenerationSoftware,Kicad,Pcbnew,9.0.0
; #@! TF.FileFunction,MixedPlating,1,8
FMAT,2
METRIC
; #@! TA.AperFunction,Plated,PTH,ViaDrill
T1C0.250
; #@! TA.AperFunction,Plated,PTH,ViaDrill
T2C0.300
; #@! TA.AperFunction,Plated,PTH,ComponentDrill
T3C0.500
; #@! TA.AperFunction,Plated,PTH,ComponentDrill
T4C0.700
; #@! TA.AperFunction,Plated,PTH,ComponentDrill
T5C1.000
; #@! TA.AperFunction,Plated,PTH,ComponentDrill
T6C2.500
; #@! TA.AperFunction,NonPlated,NPTH,ComponentDrill
T7C0.500
; #@! TA.AperFunction,NonPlated,NPTH,ComponentDrill
T8C0.991
; #@! TA.AperFunction,NonPlated,NPTH,ComponentDrill
T9C2.540
; #@! TA.AperFunction,NonPlated,NPTH,ComponentDrill
T10C3.200
%
G90
G05
T1
X114.1Y-100.225
X115.1Y-115.3
X115.5Y-98.825
X115.5Y-101.945
X115.5Y-102.905
X115.65Y-113.9
X115.65Y-117.02
X115.65Y-117.98
X115.925Y-123.8
X117.249Y-104.7
X117.574Y-101.594
X117.658Y-103.706
X117.722Y-115.682
X117.729Y-116.828
X118.05Y-119.15
X118.1Y-120.0
X118.4Y-103.6
X118.5Y-97.475
X118.5Y-120.675
X119.7Y-118.4
X120.407Y-117.873
X121.2Y-117.5
X121.8Y-93.9
X122.262Y-117.465
X123.2Y-115.6
X123.2Y-116.3
X124.0Y-114.9
X124.0Y-115.6
X124.0Y-116.3
X124.11Y-105.712
X124.3Y-102.9
X124.35Y-106.25
X124.77Y-93.25
X124.79Y-94.25
X124.9Y-114.9
X124.9Y-115.6
X124.9Y-116.3
X125.8Y-114.9
X125.8Y-115.6
X125.8Y-116.3
X125.9Y-90.3
X126.0Y-85.6
X126.0Y-86.75
X126.0Y-87.9
X126.7Y-114.9
X126.7Y-115.6
X126.7Y-116.3
X127.28Y-102.55
X127.6Y-90.4
X128.878Y-95.82
X129.275Y-93.4
X129.3Y-94.5
X130.0Y-108.25
X130.35Y-116.6
X130.35Y-119.72
X130.35Y-120.68
X130.4Y-97.0
X130.405Y-117.835
X130.6Y-108.25
X130.7Y-95.245
X130.875Y-105.625
X130.875Y-109.53
X131.0Y-85.6
X131.0Y-86.75
X131.0Y-87.9
X131.2Y-108.25
X131.6Y-104.45
X131.889Y-92.052
X132.015Y-92.791
X132.394Y-93.439
X132.415Y-118.409
X132.781Y-121.225
X133.0Y-97.3
X133.38Y-88.6
X133.38Y-89.6
X133.38Y-90.6
X133.525Y-115.25
X133.55Y-119.425
X133.6Y-118.4
X134.5Y-105.6
X134.5Y-120.6
X134.8Y-93.5
X135.1Y-102.85
X135.4Y-97.422
X136.0Y-102.6
X136.118Y-108.3
X136.317Y-120.311
X136.48Y-97.3
X137.35Y-108.9
X137.5Y-97.3
X138.15Y-94.3
X138.2Y-102.829
X138.2Y-106.0
X138.25Y-112.125
X138.47Y-97.3
X138.6Y-108.3
X138.85Y-119.625
X138.95Y-91.68
X139.49Y-97.3
X139.6Y-115.3
X139.7Y-102.8
X140.2Y-122.8
X140.525Y-124.1
X140.9Y-97.425
X141.11Y-115.3
X141.7Y-110.2
X142.25Y-94.64
X142.442Y-110.306
X142.6Y-106.329
X142.72Y-115.3
X143.29Y-123.9
X143.32Y-122.8
X143.427Y-117.478
X143.5Y-94.64
X143.68Y-115.3
X144.293Y-112.107
X144.45Y-91.68
X144.7Y-94.58
X144.7Y-105.55
X144.717Y-119.875
X145.1Y-120.6
X145.4Y-112.9
X146.1Y-121.25
X147.5Y-123.93
X147.644Y-122.9
X147.875Y-119.9
X147.9Y-105.6
X148.05Y-110.375
X148.25Y-90.45
X148.25Y-93.75
X148.275Y-95.95
X148.4Y-87.55
X149.4Y-113.55
X149.595Y-122.781
X149.725Y-114.85
X149.9Y-107.6
X150.0Y-124.475
X150.05Y-93.8
X150.55Y-119.0
X150.8Y-87.7
X151.581Y-89.169
X151.626Y-93.826
X152.2Y-123.8
X152.404Y-120.004
X152.42Y-92.4
X152.49Y-114.65
X152.52Y-113.55
X152.54Y-89.25
X153.1Y-123.8
X153.219Y-90.588
X153.25Y-95.625
X153.25Y-97.175
X153.378Y-105.041
X153.708Y-121.208
X153.899Y-90.845
X154.013Y-106.6
X154.014Y-89.883
X154.072Y-100.214
X154.325Y-110.59
X154.325Y-111.34
X154.331Y-100.918
X154.458Y-117.764
X154.65Y-98.8
X154.813Y-99.506
X154.973Y-106.6
X155.1Y-123.896
X155.1Y-122.936
X155.1Y-119.816
X155.376Y-93.755
X155.425Y-88.625
X155.474Y-92.608
X155.5Y-95.0
X155.801Y-104.381
X155.822Y-93.215
X155.825Y-94.324
X156.256Y-90.734
X156.3Y-95.0
X156.5Y-93.75
X156.6Y-90.0
X156.66Y-91.855
X156.74Y-92.55
X157.05Y-95.332
X157.056Y-88.077
X157.162Y-122.697
X157.2Y-108.1
X157.2Y-121.6
X157.401Y-89.202
X157.5Y-90.0
X157.5Y-90.9
X157.5Y-91.8
X157.5Y-92.6
X157.5Y-124.475
X157.75Y-100.2
X157.926Y-88.063
X158.093Y-106.6
X158.2Y-111.81
X158.208Y-110.3
X158.208Y-113.42
X158.208Y-114.38
X158.275Y-118.466
X158.3Y-121.65
X158.3Y-122.7
X158.312Y-89.225
X158.4Y-90.9
X158.613Y-115.6
X158.65Y-100.35
X158.7Y-104.8
X159.0Y-109.05
X159.037Y-89.236
X159.3Y-90.9
X159.3Y-91.8
X159.3Y-92.6
X159.3Y-93.6
X159.3Y-97.4
X159.4Y-124.1
X159.55Y-100.15
X159.8Y-104.8
X160.2Y-89.6
X160.2Y-95.225
X160.2Y-121.016
X160.235Y-115.992
X160.279Y-113.217
X160.286Y-112.072
X160.489Y-92.6
X160.5Y-90.3
X161.0Y-85.665
X161.307Y-88.0
X161.383Y-108.95
X161.426Y-113.029
X161.438Y-112.093
X161.54Y-107.25
X161.7Y-118.314
X161.75Y-101.793
X161.832Y-96.118
X161.948Y-93.75
X162.0Y-85.75
X162.0Y-86.5
X162.22Y-111.798
X162.4Y-116.804
X162.4Y-119.924
X162.4Y-120.884
X162.448Y-97.134
X162.75Y-85.75
X162.75Y-86.5
X162.8Y-93.839
X162.85Y-94.653
X162.951Y-102.37
X162.97Y-110.6
X162.97Y-90.555
X163.0Y-91.296
X163.0Y-122.3
X163.1Y-98.2
X163.1Y-100.9
X163.192Y-96.508
X163.4Y-113.4
X163.7Y-102.4
X163.75Y-121.7
X163.93Y-110.6
X164.2Y-92.15
X164.2Y-92.9
X164.24Y-96.76
X164.501Y-118.571
X164.507Y-119.693
X164.6Y-97.4
X164.6Y-121.7
X164.9Y-99.1
X165.0Y-100.5
X165.12Y-95.0
X165.2Y-102.75
X165.5Y-121.8
X165.55Y-122.6
X165.575Y-115.454
X165.631Y-119.711
X165.637Y-118.621
X165.7Y-112.8
X165.81Y-106.132
X166.08Y-95.0
X166.51Y-102.975
X167.1Y-97.9
X167.2Y-89.925
X167.38Y-102.708
X167.5Y-118.904
X167.5Y-118.004
X167.572Y-104.789
X167.6Y-122.3
X167.826Y-120.465
X168.518Y-112.882
X168.616Y-108.939
X168.727Y-104.784
X169.2Y-95.0
X169.37Y-110.058
X169.425Y-114.938
X169.5Y-100.375
X169.9Y-101.2
X170.0Y-119.89
X170.0Y-123.01
X170.0Y-123.97
X170.3Y-107.7
X170.33Y-110.058
X170.447Y-92.358
X170.5Y-102.975
X170.55Y-98.175
X170.6Y-115.2
X170.7Y-91.6
X170.7Y-99.725
X171.35Y-115.158
X171.62Y-89.6
X171.71Y-99.9
X171.85Y-105.883
X172.0Y-107.408
X172.25Y-115.158
X172.4Y-124.475
X172.58Y-89.6
X172.795Y-91.669
X173.107Y-102.686
X173.175Y-118.54
X173.2Y-121.975
X173.2Y-122.8
X173.4Y-96.7
X173.45Y-110.058
X173.6Y-94.7
X173.641Y-106.189
X173.84Y-91.76
X174.1Y-123.6
X174.38Y-107.6
X174.7Y-95.5
X174.7Y-101.051
X175.0Y-118.8
X175.55Y-113.233
X175.7Y-118.0
X175.761Y-106.261
X175.8Y-94.5
X175.8Y-118.8
X175.8Y-119.8
X175.9Y-104.4
X176.05Y-109.2
X176.05Y-107.528
X176.151Y-116.349
X176.4Y-105.0
X176.9Y-116.1
X176.9Y-116.75
X177.05Y-92.775
X178.6Y-106.466
X178.624Y-100.1
X179.4Y-100.2
X180.65Y-104.25
X181.55Y-101.07
X181.55Y-102.03
X182.95Y-103.75
T2
X115.0Y-86.5
X115.0Y-87.4
X117.125Y-96.725
X117.125Y-98.225
X117.275Y-111.8
X117.275Y-113.3
X117.95Y-95.475
X118.1Y-100.8
X118.2Y-106.0
X118.3Y-116.25
X118.5Y-90.6
X119.5Y-93.989
X119.627Y-105.99
X119.627Y-106.99
X119.627Y-107.99
X119.627Y-108.99
X121.4Y-95.99
X121.4Y-96.99
X121.4Y-97.99
X121.4Y-98.99
X121.4Y-99.9
X121.4Y-101.1
X121.4Y-101.99
X121.4Y-102.99
X121.6Y-110.106
X121.6Y-111.0
X121.6Y-111.99
X121.6Y-112.99
X121.6Y-113.99
X121.6Y-114.99
X121.6Y-115.99
X122.7Y-103.0
X123.5Y-103.0
X123.9Y-118.0
X126.25Y-118.0
X129.3Y-92.2
X131.975Y-114.5
X131.975Y-116.0
X133.0Y-118.95
X137.5Y-113.675
X138.1Y-121.175
X139.0Y-113.675
X139.6Y-121.175
X141.95Y-112.65
X142.55Y-119.9
X144.5Y-102.7
X147.3Y-112.0
X148.8Y-112.0
X149.025Y-101.275
X149.125Y-117.75
X149.125Y-119.25
X150.1Y-122.2
X151.054Y-110.697
X155.45Y-90.507
X156.725Y-117.716
X156.725Y-119.216
X157.75Y-122.166
X159.833Y-109.7
X160.857Y-112.65
X164.025Y-114.704
X164.025Y-116.204
X165.05Y-119.154
X168.15Y-105.358
X169.8Y-96.625
X171.1Y-104.333
X171.3Y-96.625
X171.522Y-112.756
X171.625Y-117.79
X171.625Y-119.29
X172.472Y-122.328
X172.6Y-104.333
X173.35Y-92.25
X174.05Y-111.683
X175.4Y-103.0
X175.55Y-111.683
X176.1Y-102.0
X176.3Y-91.225
X177.4Y-111.0
X177.4Y-112.024
X177.474Y-100.0
X177.474Y-101.0
X177.5Y-99.0
X177.8Y-91.225
X178.9Y-102.8
X179.0Y-98.0
X179.15Y-108.4
X179.925Y-105.75
X179.925Y-107.25
X180.0Y-109.25
T3
X120.125Y-88.0
X120.125Y-122.0
X120.674Y-86.674
X120.674Y-89.326
X120.674Y-120.674
X120.674Y-123.326
X122.0Y-86.125
X122.0Y-89.875
X122.0Y-120.125
X122.0Y-123.875
X123.326Y-86.674
X123.326Y-89.326
X123.326Y-120.674
X123.326Y-123.326
X123.875Y-88.0
X123.875Y-122.0
X178.625Y-88.0
X178.625Y-122.0
X179.174Y-86.674
X179.174Y-89.326
X179.174Y-120.674
X179.174Y-123.326
X180.5Y-86.125
X180.5Y-89.875
X180.5Y-120.125
X180.5Y-123.875
X181.826Y-86.674
X181.826Y-89.326
X181.826Y-120.674
X181.826Y-123.326
X182.375Y-88.0
X182.375Y-122.0
T4
X121.3Y-91.8
X125.9Y-120.8
X125.9Y-123.5
T5
X164.4Y-86.4
X166.94Y-86.4
X169.48Y-86.4
X172.02Y-86.4
T6
X122.0Y-88.0
X122.0Y-122.0
X180.5Y-88.0
X180.5Y-122.0
T7
X105.35Y-85.0
X105.35Y-125.0
X106.15Y-85.0
X106.15Y-125.0
X106.95Y-85.0
X106.95Y-125.0
X107.75Y-85.0
X107.75Y-125.0
X108.55Y-85.0
X108.55Y-125.0
X109.35Y-85.0
X109.35Y-125.0
X110.15Y-85.0
X110.15Y-125.0
X110.5Y-105.7
X110.5Y-109.7
X110.5Y-111.3
X110.5Y-104.1
X110.5Y-104.9
X110.5Y-106.5
X110.5Y-107.3
X110.5Y-108.1
X110.5Y-108.9
X110.5Y-110.5
X113.5Y-105.7
X113.5Y-109.7
X113.5Y-111.3
X113.5Y-104.1
X113.5Y-104.9
X113.5Y-106.5
X113.5Y-107.3
X113.5Y-108.1
X113.5Y-108.9
X113.5Y-110.5
X137.95Y-85.0
X138.75Y-85.0
X139.55Y-85.0
X140.35Y-85.0
X141.15Y-85.0
X141.95Y-85.0
X142.75Y-85.0
X143.55Y-85.0
X144.35Y-85.0
X145.15Y-85.0
X160.7Y-125.0
X161.5Y-125.0
X162.3Y-125.0
X163.1Y-125.0
X163.9Y-125.0
X164.7Y-125.0
X165.5Y-125.0
X166.3Y-125.0
X167.1Y-125.0
X167.9Y-125.0
X183.5Y-109.15
X183.5Y-109.95
X183.5Y-110.75
X183.5Y-112.35
X183.5Y-113.15
X183.5Y-113.95
X183.5Y-114.75
X183.5Y-115.55
X183.5Y-116.35
X183.5Y-111.55
X186.5Y-109.15
X186.5Y-109.95
X186.5Y-110.75
X186.5Y-111.55
X186.5Y-112.35
X186.5Y-113.15
X186.5Y-113.95
X186.5Y-114.75
X186.5Y-115.55
X186.5Y-116.35
X186.85Y-85.0
X186.85Y-90.25
X186.85Y-119.75
X186.85Y-125.0
X187.65Y-85.0
X187.65Y-90.25
X187.65Y-119.75
X187.65Y-125.0
X188.45Y-85.0
X188.45Y-90.25
X188.45Y-119.75
X188.45Y-125.0
X189.25Y-85.0
X189.25Y-90.25
X189.25Y-119.75
X189.25Y-125.0
X190.05Y-85.0
X190.05Y-90.25
X190.05Y-119.75
X190.05Y-125.0
X190.85Y-85.0
X190.85Y-90.25
X190.85Y-119.75
X190.85Y-125.0
X191.65Y-85.0
X191.65Y-90.25
X191.65Y-119.75
X191.65Y-125.0
T8
X156.09Y-98.885
X161.17Y-97.869
X161.17Y-99.901
T9
X116.3Y-89.18
X116.3Y-120.8
X180.801Y-94.19
X180.801Y-115.81
T10
X107.5Y-79.0
X107.5Y-131.0
X189.5Y-79.0
X189.5Y-131.0
T3
G00X137.38Y-88.15
M15
G01X137.38Y-87.45
M16
G05
G00X137.38Y-91.95
M15
G01X137.38Y-91.25
M16
G05
G00X146.02Y-88.15
M15
G01X146.02Y-87.45
M16
G05
G00X146.02Y-91.95
M15
G01X146.02Y-91.25
M16
G05
M30
